<svg width="12" height="8" viewBox="0 0 12 8" fill="none" xmlns="http://www.w3.org/2000/svg">
<path d="M4.36838 7.7166C4.27949 7.7166 4.19615 7.7026 4.11838 7.6746C4.0406 7.64705 3.96838 7.59993 3.90171 7.53327L1.03504 4.6666C0.912821 4.54438 0.854376 4.38593 0.859709 4.19127C0.865487 3.99705 0.929487 3.83882 1.05171 3.7166C1.17393 3.59438 1.32949 3.53327 1.51838 3.53327C1.70726 3.53327 1.86282 3.59438 1.98504 3.7166L4.36838 6.09993L10.0184 0.449935C10.1406 0.327713 10.299 0.266602 10.4937 0.266602C10.6879 0.266602 10.8462 0.327713 10.9684 0.449935C11.0906 0.572157 11.1517 0.730379 11.1517 0.924601C11.1517 1.11927 11.0906 1.27771 10.9684 1.39994L4.83504 7.53327C4.76838 7.59993 4.69615 7.64705 4.61838 7.6746C4.5406 7.7026 4.45726 7.7166 4.36838 7.7166Z" fill="white"/>
</svg>
