<svg width="121" height="40" viewBox="0 0 121 40" fill="none" xmlns="http://www.w3.org/2000/svg">
    <path fill-rule="evenodd" clip-rule="evenodd"
        d="M7.36612 16.7203C7.36612 11.5765 11.536 7.40666 16.6798 7.40666H30.441C31.1313 7.40666 31.691 7.9663 31.691 8.65666C31.691 12.8786 30.5116 15.9059 28.5999 18C26.7039 20.0767 24.2131 21.0979 21.8351 21.5628C19.4587 22.0273 17.1127 21.9536 15.384 21.773C14.5858 21.6896 13.9086 21.5822 13.4067 21.4898L9.88309 28.0216C10.0234 29.1887 11.017 30.0932 12.2219 30.0932H30.441C31.1313 30.0932 31.691 30.6529 31.691 31.3432C31.691 32.0336 31.1313 32.5932 30.441 32.5932H12.2219C9.54014 32.5932 7.36612 30.4192 7.36612 27.7374V16.7203ZM9.86612 22.7875L11.6495 19.4816C11.9215 18.9773 12.5015 18.7226 13.0568 18.8634L13.0579 18.8637L13.0626 18.8648L13.092 18.872C13.1198 18.8787 13.1635 18.8889 13.2221 18.9021C13.3393 18.9284 13.5159 18.9662 13.7434 19.0094C14.1987 19.096 14.8548 19.2041 15.6438 19.2865C17.2322 19.4525 19.3091 19.5092 21.3555 19.1092C23.4004 18.7095 25.3323 17.8712 26.7536 16.3144C27.9955 14.954 28.9459 12.9372 29.1501 9.90666H16.6798C12.9167 9.90666 9.86612 12.9572 9.86612 16.7203V22.7875Z"
        fill="#0052CD" />
    <path fill-rule="evenodd" clip-rule="evenodd"
        d="M30.286 2.5H10.714C6.45366 2.5 3 5.95366 3 10.214V29.786C3 34.0463 6.45366 37.5 10.714 37.5H30.286C34.5463 37.5 38 34.0463 38 29.786V10.214C38 5.95366 34.5463 2.5 30.286 2.5ZM10.714 0C5.07295 0 0.5 4.57295 0.5 10.214V29.786C0.5 35.4271 5.07295 40 10.714 40H30.286C35.9271 40 40.5 35.4271 40.5 29.786V10.214C40.5 4.57295 35.9271 0 30.286 0H10.714Z"
        fill="#0052CD" />
    <mask id="path-2-outside-1_560_31178" maskUnits="userSpaceOnUse" x="49.5" y="11.3171" width="71"
        height="17" fill="black">
        <rect fill="white" x="49.5" y="11.3171" width="71" height="17" />
        <path
            d="M51.4281 27.4765C51.1669 27.4765 50.9469 27.3871 50.7681 27.2084C50.5894 27.0296 50.5 26.8096 50.5 26.5484V14.029C50.5 13.7678 50.5894 13.5478 50.7681 13.369C50.9469 13.1765 51.1669 13.0803 51.4281 13.0803H59.6988C59.9463 13.0803 60.1525 13.1696 60.3175 13.3484C60.4963 13.5134 60.5856 13.7196 60.5856 13.9671C60.5856 14.2146 60.4963 14.4209 60.3175 14.5859C60.1525 14.7509 59.9463 14.8334 59.6988 14.8334H52.3769V19.3915H58.9563C59.2038 19.3915 59.41 19.4809 59.575 19.6596C59.7537 19.8246 59.8431 20.0309 59.8431 20.2784C59.8431 20.5259 59.7537 20.7321 59.575 20.8971C59.41 21.0621 59.2038 21.1446 58.9563 21.1446H52.3769V25.7234H59.6988C59.9463 25.7234 60.1525 25.8128 60.3175 25.9915C60.4963 26.1565 60.5856 26.3628 60.5856 26.6103C60.5856 26.8578 60.4963 27.064 60.3175 27.229C60.1525 27.394 59.9463 27.4765 59.6988 27.4765H51.4281Z" />
        <path
            d="M68.0126 27.6828C66.0051 27.6828 65.0013 26.7753 65.0013 24.9603V18.5665H63.5369C63.4269 18.5665 63.3307 18.5321 63.2482 18.4634C63.1794 18.3809 63.1451 18.2846 63.1451 18.1746C63.1451 18.0371 63.2069 17.9203 63.3307 17.824L66.1357 15.0809C66.2594 14.9571 66.3763 14.8953 66.4863 14.8953C66.5963 14.8953 66.6857 14.9365 66.7544 15.019C66.8369 15.1015 66.8782 15.1978 66.8782 15.3078V16.9578H69.2088C69.4426 16.9578 69.6351 17.0334 69.7863 17.1846C69.9376 17.3359 70.0132 17.5284 70.0132 17.7621C70.0132 17.9821 69.9376 18.1746 69.7863 18.3396C69.6351 18.4909 69.4426 18.5665 69.2088 18.5665H66.8782V24.7953C66.8782 25.3315 67.0019 25.6753 67.2494 25.8265C67.5107 25.964 67.8338 26.0328 68.2188 26.0328C68.4938 26.0328 68.7688 25.9915 69.0438 25.909C69.0988 25.8953 69.1538 25.8815 69.2088 25.8678C69.2776 25.854 69.3601 25.8471 69.4563 25.8471C69.6488 25.8471 69.8207 25.9228 69.9719 26.074C70.1232 26.2115 70.1988 26.3834 70.1988 26.5896C70.1988 26.9059 70.0407 27.1465 69.7244 27.3115C69.1882 27.559 68.6176 27.6828 68.0126 27.6828Z" />
        <path
            d="M74.6298 27.5796C74.3685 27.5796 74.1485 27.4903 73.9698 27.3115C73.791 27.1328 73.7017 26.9128 73.7017 26.6515V13.2659C73.7017 13.0046 73.791 12.7846 73.9698 12.6059C74.1485 12.4134 74.3685 12.3171 74.6298 12.3171C74.891 12.3171 75.111 12.4134 75.2898 12.6059C75.4823 12.7846 75.5785 13.0046 75.5785 13.2659V18.649C76.101 18.0715 76.6648 17.6109 77.2698 17.2671C77.8748 16.9234 78.5898 16.7515 79.4148 16.7515C80.171 16.7515 80.8242 16.9303 81.3742 17.2878C81.9379 17.6453 82.3642 18.1334 82.6529 18.7521C82.9554 19.3709 83.1067 20.0515 83.1067 20.794V26.6515C83.1067 26.9128 83.0104 27.1328 82.8179 27.3115C82.6392 27.4903 82.4192 27.5796 82.1579 27.5796C81.8967 27.5796 81.6767 27.4903 81.4979 27.3115C81.3192 27.1328 81.2298 26.9128 81.2298 26.6515V21.0003C81.2298 19.3228 80.4735 18.484 78.961 18.484C78.2735 18.484 77.6548 18.6628 77.1048 19.0203C76.5686 19.3778 76.0598 19.859 75.5785 20.464V26.6515C75.5785 26.9128 75.4823 27.1328 75.2898 27.3115C75.111 27.4903 74.891 27.5796 74.6298 27.5796Z" />
        <path
            d="M92.3544 27.6828C91.2957 27.6828 90.3675 27.4559 89.57 27.0021C88.7725 26.5484 88.1538 25.909 87.7138 25.084C87.2875 24.2453 87.0744 23.2896 87.0744 22.2171C87.0744 21.1446 87.2875 20.1959 87.7138 19.3709C88.1538 18.5321 88.7725 17.8859 89.57 17.4321C90.3675 16.9784 91.2957 16.7515 92.3544 16.7515C93.3994 16.7515 94.3207 16.9784 95.1182 17.4321C95.9157 17.8859 96.5344 18.5321 96.9744 19.3709C97.4144 20.1959 97.6344 21.1446 97.6344 22.2171C97.6344 23.2896 97.4144 24.2453 96.9744 25.084C96.5344 25.909 95.9157 26.5484 95.1182 27.0021C94.3207 27.4559 93.3994 27.6828 92.3544 27.6828ZM92.3544 25.9709C92.9182 25.9709 93.4544 25.8403 93.9632 25.579C94.4857 25.3178 94.9119 24.9053 95.2419 24.3415C95.5857 23.7778 95.7575 23.0628 95.7575 22.1965C95.7575 21.344 95.5857 20.6359 95.2419 20.0721C94.9119 19.5084 94.4857 19.1028 93.9632 18.8553C93.4544 18.594 92.9182 18.4634 92.3544 18.4634C91.7769 18.4634 91.2269 18.594 90.7044 18.8553C90.1957 19.1028 89.7763 19.5084 89.4463 20.0721C89.1163 20.6359 88.9513 21.344 88.9513 22.1965C88.9513 23.0628 89.1163 23.7778 89.4463 24.3415C89.7763 24.9053 90.1957 25.3178 90.7044 25.579C91.2269 25.8403 91.7769 25.9709 92.3544 25.9709Z" />
        <path
            d="M102.634 27.5796C102.373 27.5796 102.153 27.4903 101.974 27.3115C101.795 27.1328 101.706 26.9128 101.706 26.6515V17.8034C101.706 17.5421 101.795 17.3221 101.974 17.1434C102.153 16.9509 102.373 16.8546 102.634 16.8546C102.895 16.8546 103.115 16.9509 103.294 17.1434C103.486 17.3221 103.583 17.5421 103.583 17.8034V18.6903C104.545 17.3978 105.625 16.7515 106.821 16.7515H106.924C107.185 16.7515 107.398 16.8409 107.563 17.0196C107.742 17.1984 107.831 17.4184 107.831 17.6796C107.831 17.9409 107.742 18.154 107.563 18.319C107.385 18.484 107.158 18.5665 106.883 18.5665H106.78C106.12 18.5665 105.515 18.7315 104.965 19.0615C104.415 19.3778 103.954 19.8178 103.583 20.3815V26.6515C103.583 26.9128 103.486 27.1328 103.294 27.3115C103.115 27.4903 102.895 27.5796 102.634 27.5796Z" />
        <path
            d="M113.726 27.6828C113.121 27.6828 112.558 27.559 112.035 27.3115C111.526 27.064 111.121 26.7065 110.818 26.239C110.516 25.7578 110.364 25.2078 110.364 24.589C110.364 23.5715 110.763 22.7603 111.561 22.1553C112.372 21.5503 113.554 21.2478 115.108 21.2478H117.604V21.0828C117.604 20.1753 117.377 19.5221 116.923 19.1234C116.483 18.7246 115.789 18.5253 114.84 18.5253C114.318 18.5253 113.85 18.5665 113.438 18.649C113.039 18.7315 112.592 18.8553 112.097 19.0203C111.987 19.0478 111.898 19.0615 111.829 19.0615C111.623 19.0615 111.444 18.9859 111.293 18.8346C111.141 18.6834 111.066 18.4978 111.066 18.2778C111.066 17.9065 111.244 17.6453 111.602 17.494C112.771 16.999 113.96 16.7515 115.17 16.7515C116.119 16.7515 116.916 16.944 117.563 17.329C118.223 17.714 118.704 18.2159 119.006 18.8346C119.323 19.4396 119.481 20.0996 119.481 20.8146V26.6515C119.481 26.9128 119.384 27.1328 119.192 27.3115C119.013 27.4903 118.793 27.5796 118.532 27.5796C118.271 27.5796 118.051 27.4903 117.872 27.3115C117.693 27.1328 117.604 26.9128 117.604 26.6515V26.1153C116.586 27.1603 115.294 27.6828 113.726 27.6828ZM114.428 26.0328C115.033 26.0328 115.617 25.8884 116.181 25.5996C116.744 25.2971 117.219 24.9259 117.604 24.4859V22.7534H115.356C113.279 22.7534 112.241 23.2965 112.241 24.3828C112.241 24.8778 112.406 25.2765 112.736 25.579C113.08 25.8815 113.644 26.0328 114.428 26.0328Z" />
    </mask>
    <path
        d="M51.4281 27.4765C51.1669 27.4765 50.9469 27.3871 50.7681 27.2084C50.5894 27.0296 50.5 26.8096 50.5 26.5484V14.029C50.5 13.7678 50.5894 13.5478 50.7681 13.369C50.9469 13.1765 51.1669 13.0803 51.4281 13.0803H59.6988C59.9463 13.0803 60.1525 13.1696 60.3175 13.3484C60.4963 13.5134 60.5856 13.7196 60.5856 13.9671C60.5856 14.2146 60.4963 14.4209 60.3175 14.5859C60.1525 14.7509 59.9463 14.8334 59.6988 14.8334H52.3769V19.3915H58.9563C59.2038 19.3915 59.41 19.4809 59.575 19.6596C59.7537 19.8246 59.8431 20.0309 59.8431 20.2784C59.8431 20.5259 59.7537 20.7321 59.575 20.8971C59.41 21.0621 59.2038 21.1446 58.9563 21.1446H52.3769V25.7234H59.6988C59.9463 25.7234 60.1525 25.8128 60.3175 25.9915C60.4963 26.1565 60.5856 26.3628 60.5856 26.6103C60.5856 26.8578 60.4963 27.064 60.3175 27.229C60.1525 27.394 59.9463 27.4765 59.6988 27.4765H51.4281Z"
        fill="#0052CD" />
    <path
        d="M68.0126 27.6828C66.0051 27.6828 65.0013 26.7753 65.0013 24.9603V18.5665H63.5369C63.4269 18.5665 63.3307 18.5321 63.2482 18.4634C63.1794 18.3809 63.1451 18.2846 63.1451 18.1746C63.1451 18.0371 63.2069 17.9203 63.3307 17.824L66.1357 15.0809C66.2594 14.9571 66.3763 14.8953 66.4863 14.8953C66.5963 14.8953 66.6857 14.9365 66.7544 15.019C66.8369 15.1015 66.8782 15.1978 66.8782 15.3078V16.9578H69.2088C69.4426 16.9578 69.6351 17.0334 69.7863 17.1846C69.9376 17.3359 70.0132 17.5284 70.0132 17.7621C70.0132 17.9821 69.9376 18.1746 69.7863 18.3396C69.6351 18.4909 69.4426 18.5665 69.2088 18.5665H66.8782V24.7953C66.8782 25.3315 67.0019 25.6753 67.2494 25.8265C67.5107 25.964 67.8338 26.0328 68.2188 26.0328C68.4938 26.0328 68.7688 25.9915 69.0438 25.909C69.0988 25.8953 69.1538 25.8815 69.2088 25.8678C69.2776 25.854 69.3601 25.8471 69.4563 25.8471C69.6488 25.8471 69.8207 25.9228 69.9719 26.074C70.1232 26.2115 70.1988 26.3834 70.1988 26.5896C70.1988 26.9059 70.0407 27.1465 69.7244 27.3115C69.1882 27.559 68.6176 27.6828 68.0126 27.6828Z"
        fill="#0052CD" />
    <path
        d="M74.6298 27.5796C74.3685 27.5796 74.1485 27.4903 73.9698 27.3115C73.791 27.1328 73.7017 26.9128 73.7017 26.6515V13.2659C73.7017 13.0046 73.791 12.7846 73.9698 12.6059C74.1485 12.4134 74.3685 12.3171 74.6298 12.3171C74.891 12.3171 75.111 12.4134 75.2898 12.6059C75.4823 12.7846 75.5785 13.0046 75.5785 13.2659V18.649C76.101 18.0715 76.6648 17.6109 77.2698 17.2671C77.8748 16.9234 78.5898 16.7515 79.4148 16.7515C80.171 16.7515 80.8242 16.9303 81.3742 17.2878C81.9379 17.6453 82.3642 18.1334 82.6529 18.7521C82.9554 19.3709 83.1067 20.0515 83.1067 20.794V26.6515C83.1067 26.9128 83.0104 27.1328 82.8179 27.3115C82.6392 27.4903 82.4192 27.5796 82.1579 27.5796C81.8967 27.5796 81.6767 27.4903 81.4979 27.3115C81.3192 27.1328 81.2298 26.9128 81.2298 26.6515V21.0003C81.2298 19.3228 80.4735 18.484 78.961 18.484C78.2735 18.484 77.6548 18.6628 77.1048 19.0203C76.5686 19.3778 76.0598 19.859 75.5785 20.464V26.6515C75.5785 26.9128 75.4823 27.1328 75.2898 27.3115C75.111 27.4903 74.891 27.5796 74.6298 27.5796Z"
        fill="#0052CD" />
    <path
        d="M92.3544 27.6828C91.2957 27.6828 90.3675 27.4559 89.57 27.0021C88.7725 26.5484 88.1538 25.909 87.7138 25.084C87.2875 24.2453 87.0744 23.2896 87.0744 22.2171C87.0744 21.1446 87.2875 20.1959 87.7138 19.3709C88.1538 18.5321 88.7725 17.8859 89.57 17.4321C90.3675 16.9784 91.2957 16.7515 92.3544 16.7515C93.3994 16.7515 94.3207 16.9784 95.1182 17.4321C95.9157 17.8859 96.5344 18.5321 96.9744 19.3709C97.4144 20.1959 97.6344 21.1446 97.6344 22.2171C97.6344 23.2896 97.4144 24.2453 96.9744 25.084C96.5344 25.909 95.9157 26.5484 95.1182 27.0021C94.3207 27.4559 93.3994 27.6828 92.3544 27.6828ZM92.3544 25.9709C92.9182 25.9709 93.4544 25.8403 93.9632 25.579C94.4857 25.3178 94.9119 24.9053 95.2419 24.3415C95.5857 23.7778 95.7575 23.0628 95.7575 22.1965C95.7575 21.344 95.5857 20.6359 95.2419 20.0721C94.9119 19.5084 94.4857 19.1028 93.9632 18.8553C93.4544 18.594 92.9182 18.4634 92.3544 18.4634C91.7769 18.4634 91.2269 18.594 90.7044 18.8553C90.1957 19.1028 89.7763 19.5084 89.4463 20.0721C89.1163 20.6359 88.9513 21.344 88.9513 22.1965C88.9513 23.0628 89.1163 23.7778 89.4463 24.3415C89.7763 24.9053 90.1957 25.3178 90.7044 25.579C91.2269 25.8403 91.7769 25.9709 92.3544 25.9709Z"
        fill="#0052CD" />
    <path
        d="M102.634 27.5796C102.373 27.5796 102.153 27.4903 101.974 27.3115C101.795 27.1328 101.706 26.9128 101.706 26.6515V17.8034C101.706 17.5421 101.795 17.3221 101.974 17.1434C102.153 16.9509 102.373 16.8546 102.634 16.8546C102.895 16.8546 103.115 16.9509 103.294 17.1434C103.486 17.3221 103.583 17.5421 103.583 17.8034V18.6903C104.545 17.3978 105.625 16.7515 106.821 16.7515H106.924C107.185 16.7515 107.398 16.8409 107.563 17.0196C107.742 17.1984 107.831 17.4184 107.831 17.6796C107.831 17.9409 107.742 18.154 107.563 18.319C107.385 18.484 107.158 18.5665 106.883 18.5665H106.78C106.12 18.5665 105.515 18.7315 104.965 19.0615C104.415 19.3778 103.954 19.8178 103.583 20.3815V26.6515C103.583 26.9128 103.486 27.1328 103.294 27.3115C103.115 27.4903 102.895 27.5796 102.634 27.5796Z"
        fill="#0052CD" />
    <path
        d="M113.726 27.6828C113.121 27.6828 112.558 27.559 112.035 27.3115C111.526 27.064 111.121 26.7065 110.818 26.239C110.516 25.7578 110.364 25.2078 110.364 24.589C110.364 23.5715 110.763 22.7603 111.561 22.1553C112.372 21.5503 113.554 21.2478 115.108 21.2478H117.604V21.0828C117.604 20.1753 117.377 19.5221 116.923 19.1234C116.483 18.7246 115.789 18.5253 114.84 18.5253C114.318 18.5253 113.85 18.5665 113.438 18.649C113.039 18.7315 112.592 18.8553 112.097 19.0203C111.987 19.0478 111.898 19.0615 111.829 19.0615C111.623 19.0615 111.444 18.9859 111.293 18.8346C111.141 18.6834 111.066 18.4978 111.066 18.2778C111.066 17.9065 111.244 17.6453 111.602 17.494C112.771 16.999 113.96 16.7515 115.17 16.7515C116.119 16.7515 116.916 16.944 117.563 17.329C118.223 17.714 118.704 18.2159 119.006 18.8346C119.323 19.4396 119.481 20.0996 119.481 20.8146V26.6515C119.481 26.9128 119.384 27.1328 119.192 27.3115C119.013 27.4903 118.793 27.5796 118.532 27.5796C118.271 27.5796 118.051 27.4903 117.872 27.3115C117.693 27.1328 117.604 26.9128 117.604 26.6515V26.1153C116.586 27.1603 115.294 27.6828 113.726 27.6828ZM114.428 26.0328C115.033 26.0328 115.617 25.8884 116.181 25.5996C116.744 25.2971 117.219 24.9259 117.604 24.4859V22.7534H115.356C113.279 22.7534 112.241 23.2965 112.241 24.3828C112.241 24.8778 112.406 25.2765 112.736 25.579C113.08 25.8815 113.644 26.0328 114.428 26.0328Z"
        fill="#0052CD" />
    <path
        d="M51.4281 27.4765C51.1669 27.4765 50.9469 27.3871 50.7681 27.2084C50.5894 27.0296 50.5 26.8096 50.5 26.5484V14.029C50.5 13.7678 50.5894 13.5478 50.7681 13.369C50.9469 13.1765 51.1669 13.0803 51.4281 13.0803H59.6988C59.9463 13.0803 60.1525 13.1696 60.3175 13.3484C60.4963 13.5134 60.5856 13.7196 60.5856 13.9671C60.5856 14.2146 60.4963 14.4209 60.3175 14.5859C60.1525 14.7509 59.9463 14.8334 59.6988 14.8334H52.3769V19.3915H58.9563C59.2038 19.3915 59.41 19.4809 59.575 19.6596C59.7537 19.8246 59.8431 20.0309 59.8431 20.2784C59.8431 20.5259 59.7537 20.7321 59.575 20.8971C59.41 21.0621 59.2038 21.1446 58.9563 21.1446H52.3769V25.7234H59.6988C59.9463 25.7234 60.1525 25.8128 60.3175 25.9915C60.4963 26.1565 60.5856 26.3628 60.5856 26.6103C60.5856 26.8578 60.4963 27.064 60.3175 27.229C60.1525 27.394 59.9463 27.4765 59.6988 27.4765H51.4281Z"
        stroke="#0052CD" mask="url(#path-2-outside-1_560_31178)" />
    <path
        d="M68.0126 27.6828C66.0051 27.6828 65.0013 26.7753 65.0013 24.9603V18.5665H63.5369C63.4269 18.5665 63.3307 18.5321 63.2482 18.4634C63.1794 18.3809 63.1451 18.2846 63.1451 18.1746C63.1451 18.0371 63.2069 17.9203 63.3307 17.824L66.1357 15.0809C66.2594 14.9571 66.3763 14.8953 66.4863 14.8953C66.5963 14.8953 66.6857 14.9365 66.7544 15.019C66.8369 15.1015 66.8782 15.1978 66.8782 15.3078V16.9578H69.2088C69.4426 16.9578 69.6351 17.0334 69.7863 17.1846C69.9376 17.3359 70.0132 17.5284 70.0132 17.7621C70.0132 17.9821 69.9376 18.1746 69.7863 18.3396C69.6351 18.4909 69.4426 18.5665 69.2088 18.5665H66.8782V24.7953C66.8782 25.3315 67.0019 25.6753 67.2494 25.8265C67.5107 25.964 67.8338 26.0328 68.2188 26.0328C68.4938 26.0328 68.7688 25.9915 69.0438 25.909C69.0988 25.8953 69.1538 25.8815 69.2088 25.8678C69.2776 25.854 69.3601 25.8471 69.4563 25.8471C69.6488 25.8471 69.8207 25.9228 69.9719 26.074C70.1232 26.2115 70.1988 26.3834 70.1988 26.5896C70.1988 26.9059 70.0407 27.1465 69.7244 27.3115C69.1882 27.559 68.6176 27.6828 68.0126 27.6828Z"
        stroke="#0052CD" mask="url(#path-2-outside-1_560_31178)" />
    <path
        d="M74.6298 27.5796C74.3685 27.5796 74.1485 27.4903 73.9698 27.3115C73.791 27.1328 73.7017 26.9128 73.7017 26.6515V13.2659C73.7017 13.0046 73.791 12.7846 73.9698 12.6059C74.1485 12.4134 74.3685 12.3171 74.6298 12.3171C74.891 12.3171 75.111 12.4134 75.2898 12.6059C75.4823 12.7846 75.5785 13.0046 75.5785 13.2659V18.649C76.101 18.0715 76.6648 17.6109 77.2698 17.2671C77.8748 16.9234 78.5898 16.7515 79.4148 16.7515C80.171 16.7515 80.8242 16.9303 81.3742 17.2878C81.9379 17.6453 82.3642 18.1334 82.6529 18.7521C82.9554 19.3709 83.1067 20.0515 83.1067 20.794V26.6515C83.1067 26.9128 83.0104 27.1328 82.8179 27.3115C82.6392 27.4903 82.4192 27.5796 82.1579 27.5796C81.8967 27.5796 81.6767 27.4903 81.4979 27.3115C81.3192 27.1328 81.2298 26.9128 81.2298 26.6515V21.0003C81.2298 19.3228 80.4735 18.484 78.961 18.484C78.2735 18.484 77.6548 18.6628 77.1048 19.0203C76.5686 19.3778 76.0598 19.859 75.5785 20.464V26.6515C75.5785 26.9128 75.4823 27.1328 75.2898 27.3115C75.111 27.4903 74.891 27.5796 74.6298 27.5796Z"
        stroke="#0052CD" mask="url(#path-2-outside-1_560_31178)" />
    <path
        d="M92.3544 27.6828C91.2957 27.6828 90.3675 27.4559 89.57 27.0021C88.7725 26.5484 88.1538 25.909 87.7138 25.084C87.2875 24.2453 87.0744 23.2896 87.0744 22.2171C87.0744 21.1446 87.2875 20.1959 87.7138 19.3709C88.1538 18.5321 88.7725 17.8859 89.57 17.4321C90.3675 16.9784 91.2957 16.7515 92.3544 16.7515C93.3994 16.7515 94.3207 16.9784 95.1182 17.4321C95.9157 17.8859 96.5344 18.5321 96.9744 19.3709C97.4144 20.1959 97.6344 21.1446 97.6344 22.2171C97.6344 23.2896 97.4144 24.2453 96.9744 25.084C96.5344 25.909 95.9157 26.5484 95.1182 27.0021C94.3207 27.4559 93.3994 27.6828 92.3544 27.6828ZM92.3544 25.9709C92.9182 25.9709 93.4544 25.8403 93.9632 25.579C94.4857 25.3178 94.9119 24.9053 95.2419 24.3415C95.5857 23.7778 95.7575 23.0628 95.7575 22.1965C95.7575 21.344 95.5857 20.6359 95.2419 20.0721C94.9119 19.5084 94.4857 19.1028 93.9632 18.8553C93.4544 18.594 92.9182 18.4634 92.3544 18.4634C91.7769 18.4634 91.2269 18.594 90.7044 18.8553C90.1957 19.1028 89.7763 19.5084 89.4463 20.0721C89.1163 20.6359 88.9513 21.344 88.9513 22.1965C88.9513 23.0628 89.1163 23.7778 89.4463 24.3415C89.7763 24.9053 90.1957 25.3178 90.7044 25.579C91.2269 25.8403 91.7769 25.9709 92.3544 25.9709Z"
        stroke="#0052CD" mask="url(#path-2-outside-1_560_31178)" />
    <path
        d="M102.634 27.5796C102.373 27.5796 102.153 27.4903 101.974 27.3115C101.795 27.1328 101.706 26.9128 101.706 26.6515V17.8034C101.706 17.5421 101.795 17.3221 101.974 17.1434C102.153 16.9509 102.373 16.8546 102.634 16.8546C102.895 16.8546 103.115 16.9509 103.294 17.1434C103.486 17.3221 103.583 17.5421 103.583 17.8034V18.6903C104.545 17.3978 105.625 16.7515 106.821 16.7515H106.924C107.185 16.7515 107.398 16.8409 107.563 17.0196C107.742 17.1984 107.831 17.4184 107.831 17.6796C107.831 17.9409 107.742 18.154 107.563 18.319C107.385 18.484 107.158 18.5665 106.883 18.5665H106.78C106.12 18.5665 105.515 18.7315 104.965 19.0615C104.415 19.3778 103.954 19.8178 103.583 20.3815V26.6515C103.583 26.9128 103.486 27.1328 103.294 27.3115C103.115 27.4903 102.895 27.5796 102.634 27.5796Z"
        stroke="#0052CD" mask="url(#path-2-outside-1_560_31178)" />
    <path
        d="M113.726 27.6828C113.121 27.6828 112.558 27.559 112.035 27.3115C111.526 27.064 111.121 26.7065 110.818 26.239C110.516 25.7578 110.364 25.2078 110.364 24.589C110.364 23.5715 110.763 22.7603 111.561 22.1553C112.372 21.5503 113.554 21.2478 115.108 21.2478H117.604V21.0828C117.604 20.1753 117.377 19.5221 116.923 19.1234C116.483 18.7246 115.789 18.5253 114.84 18.5253C114.318 18.5253 113.85 18.5665 113.438 18.649C113.039 18.7315 112.592 18.8553 112.097 19.0203C111.987 19.0478 111.898 19.0615 111.829 19.0615C111.623 19.0615 111.444 18.9859 111.293 18.8346C111.141 18.6834 111.066 18.4978 111.066 18.2778C111.066 17.9065 111.244 17.6453 111.602 17.494C112.771 16.999 113.96 16.7515 115.17 16.7515C116.119 16.7515 116.916 16.944 117.563 17.329C118.223 17.714 118.704 18.2159 119.006 18.8346C119.323 19.4396 119.481 20.0996 119.481 20.8146V26.6515C119.481 26.9128 119.384 27.1328 119.192 27.3115C119.013 27.4903 118.793 27.5796 118.532 27.5796C118.271 27.5796 118.051 27.4903 117.872 27.3115C117.693 27.1328 117.604 26.9128 117.604 26.6515V26.1153C116.586 27.1603 115.294 27.6828 113.726 27.6828ZM114.428 26.0328C115.033 26.0328 115.617 25.8884 116.181 25.5996C116.744 25.2971 117.219 24.9259 117.604 24.4859V22.7534H115.356C113.279 22.7534 112.241 23.2965 112.241 24.3828C112.241 24.8778 112.406 25.2765 112.736 25.579C113.08 25.8815 113.644 26.0328 114.428 26.0328Z"
        stroke="#0052CD" mask="url(#path-2-outside-1_560_31178)" />
</svg>
