<svg width="40" height="40" viewBox="0 0 40 40" fill="none" xmlns="http://www.w3.org/2000/svg">
<path fill-rule="evenodd" clip-rule="evenodd" d="M6.86612 16.7203C6.86612 11.5765 11.036 7.40666 16.1798 7.40666H29.941C30.6313 7.40666 31.191 7.9663 31.191 8.65666C31.191 12.8786 30.0116 15.9059 28.0999 18C26.2039 20.0767 23.7131 21.0979 21.3351 21.5628C18.9587 22.0273 16.6127 21.9536 14.884 21.773C14.0858 21.6896 13.4086 21.5822 12.9067 21.4898L9.38309 28.0216C9.52342 29.1887 10.517 30.0932 11.7219 30.0932H29.941C30.6313 30.0932 31.191 30.6529 31.191 31.3432C31.191 32.0336 30.6313 32.5932 29.941 32.5932H11.7219C9.04014 32.5932 6.86612 30.4192 6.86612 27.7374V16.7203ZM9.36612 22.7875L11.1495 19.4816C11.4215 18.9773 12.0015 18.7226 12.5568 18.8634L12.5579 18.8637L12.5626 18.8648L12.592 18.872C12.6198 18.8787 12.6635 18.8889 12.7221 18.9021C12.8393 18.9284 13.0159 18.9662 13.2434 19.0094C13.6987 19.096 14.3548 19.2041 15.1438 19.2865C16.7322 19.4525 18.8091 19.5092 20.8555 19.1092C22.9004 18.7095 24.8323 17.8712 26.2536 16.3144C27.4955 14.954 28.4459 12.9372 28.6501 9.90666H16.1798C12.4167 9.90666 9.36612 12.9572 9.36612 16.7203V22.7875Z" fill="#0052CD"/>
<path fill-rule="evenodd" clip-rule="evenodd" d="M29.786 2.5H10.214C5.95366 2.5 2.5 5.95366 2.5 10.214V29.786C2.5 34.0463 5.95366 37.5 10.214 37.5H29.786C34.0463 37.5 37.5 34.0463 37.5 29.786V10.214C37.5 5.95366 34.0463 2.5 29.786 2.5ZM10.214 0C4.57295 0 0 4.57295 0 10.214V29.786C0 35.4271 4.57295 40 10.214 40H29.786C35.4271 40 40 35.4271 40 29.786V10.214C40 4.57295 35.4271 0 29.786 0H10.214Z" fill="#0052CD"/>
</svg>
